<?xml version="1.0" encoding="UTF-8"?>
<svg width="310mm" height="90mm" version="1.1" viewBox="0 0 310 90" xmlns="http://www.w3.org/2000/svg">
 <defs>
  <clipPath id="clipPath106">
   <path d="m220.04 280.06h52.773v-56.976h-52.773z"/>
  </clipPath>
  <clipPath id="clipPath90">
   <path d="m220.04 310.85h52.773v-56.98h-52.773z"/>
  </clipPath>
  <clipPath id="clipPath74">
   <path d="m167.27 279.94h52.774v-56.98h-52.774z"/>
  </clipPath>
  <clipPath id="clipPath58">
   <path d="m220.04 341.6h52.773v-56.976h-52.773z"/>
  </clipPath>
  <clipPath id="clipPath42">
   <path d="m220.04 372.39h52.773v-56.979h-52.773z"/>
  </clipPath>
  <clipPath id="clipPath26">
   <path d="m167.27 372.39h52.774v-56.979h-52.774z"/>
  </clipPath>
 </defs>
 <g transform="translate(-.24129 -.62038)">
  <g transform="matrix(.59149 0 0 -.59149 -93.743 221.69)">
   <g clip-path="url(#clipPath26)">
    <g transform="translate(220.04 346.2)">
     <path d="m0 0-52.774-30.787v26.192l52.774 30.787z" fill="#00b3f0"/>
    </g>
   </g>
  </g>
  <g transform="matrix(.59149 0 0 -.59149 -93.743 221.69)">
   <g clip-path="url(#clipPath42)">
    <g transform="translate(220.04 346.2)">
     <path d="m0 0 52.773-30.787v26.192l-52.773 30.787z" fill="#006db6"/>
    </g>
   </g>
  </g>
  <g transform="matrix(.59149 0 0 -.59149 -93.743 221.69)">
   <g clip-path="url(#clipPath58)">
    <g transform="translate(272.81 315.41)">
     <path d="m0 0-52.773-30.784v26.191l52.773 30.785z" fill="#522e91"/>
    </g>
   </g>
  </g>
  <g transform="matrix(.59149 0 0 -.59149 -93.743 221.69)">
   <g clip-path="url(#clipPath74)">
    <g transform="translate(167.27 253.75)">
     <path d="m0 0 52.774-30.785v26.192l-52.774 30.788z" fill="#006db6"/>
    </g>
   </g>
  </g>
  <g transform="matrix(.59149 0 0 -.59149 -93.743 221.69)">
   <g clip-path="url(#clipPath90)">
    <g transform="translate(220.04 284.66)">
     <path d="m0 0 52.773-30.787v26.193l-52.773 30.787z" fill="#00b3f0"/>
    </g>
   </g>
  </g>
  <g transform="matrix(.59149 0 0 -.59149 -93.743 221.69)">
   <g clip-path="url(#clipPath106)">
    <g transform="translate(272.81 253.87)">
     <path d="m0 0-52.773-30.785v26.191l52.773 30.785z" fill="#522e91"/>
    </g>
   </g>
  </g>
  <g transform="matrix(.59149 0 0 -.59149 90.658 51.649)">
   <path d="m0 0h9.635c6.045 0 9.446 3.954 9.446 9.472 0 5.426-3.495 9.38-9.446 9.38h-11.713v-16.829c0-1.288 0.756-2.023 2.078-2.023m8.502 28.417c5.195 0 8.123 3.678 8.123 8.368s-2.834 8.093-8.312 8.093h-10.391v-16.461zm-22.954 16.461h-6.141v10.207h28.999c12.091 0 20.782-6.069 20.782-16.829 0-7.265-4.061-11.955-8.124-13.978v-0.184c7.275-2.115 10.77-8.736 10.77-15.358 0-13.058-10.675-18.945-23.144-18.945h-16.719c-4.44 0-6.423 1.84-6.423 6.254z" fill="#006bb6"/>
  </g>
  <g transform="matrix(.59149 0 0 -.59149 116.3 37.017)">
   <path d="m0 0c0 1.379-0.756 2.023-2.078 2.023h-3.778v9.933h11.429c4.44 0 6.329-1.932 6.329-6.162v-21.611c0-5.702 1.512-9.565 7.462-9.565 8.691 0 13.508 7.449 13.508 15.818v21.52h11.997v-35.039c0-1.288 0.755-2.024 2.078-2.024h3.779v-9.84h-11.052c-4.157 0-6.329 1.932-6.329 5.242v1.288c0 1.103 0.094 2.116 0.094 2.116h-0.189c-2.268-4.874-8.313-9.749-16.625-9.749-10.297 0-16.625 5.058-16.625 17.842z" fill="#006bb6"/>
  </g>
  <path d="m152.61 19.067h6.1462v6.3638h-6.1462zm-0.3348 17.951c0-0.81566-0.44716-1.1972-1.2297-1.1972h-2.2352v-5.8747h6.7613c2.625 0 3.743 1.1428 3.743 3.6992v17.026c0 0.76126 0.44716 1.1972 1.2291 1.1972h2.2347v5.8203h-6.7601c-2.6262 0-3.743-1.0884-3.743-3.6992z" fill="#006bb6"/>
  <g transform="matrix(.59149 0 0 -.59149 168.59 26.138)">
   <path d="m0 0c0 1.379-0.755 2.023-2.078 2.023h-3.777v9.932h11.429c4.44 0 6.424-1.931 6.424-6.253v-47.178c0-1.287 0.755-2.024 2.078-2.024h3.683v-9.839h-11.335c-4.534 0-6.424 1.839-6.424 6.254z" fill="#006bb6"/>
  </g>
  <g transform="matrix(.59149 0 0 -.59149 203.56 43.762)">
   <path d="m0 0c0 7.265-3.874 14.438-11.902 14.438-6.613 0-12.091-5.242-12.091-14.53 0-8.92 4.817-14.714 11.902-14.714 6.234 0 12.091 4.414 12.091 14.806m-14.264 24.462c10.485 0 13.886-5.701 13.886-5.701h0.189s-0.095 1.195-0.095 2.758v8.277c0 1.379-0.755 2.023-2.078 2.023h-3.779v9.932h11.43c4.44 0 6.424-1.931 6.424-6.253v-47.178c0-1.287 0.755-2.024 2.078-2.024h3.685v-9.839h-11.054c-4.344 0-5.95 2.023-5.95 4.782v1.748h-0.189s-3.967-7.634-15.02-7.634c-13.035 0-21.443 10.024-21.443 24.555 0 14.898 9.163 24.554 21.916 24.554" fill="#006bb6"/>
  </g>
  <g transform="matrix(.59149 0 0 -.59149 220.65 25.104)">
   <path d="m0 0h-6.139v10.208h40.525c4.438 0 6.422-1.931 6.422-6.254v-9.932h-11.242v3.955c0 1.287-0.754 2.023-2.078 2.023h-15.113v-17.105h21.726v-10.208h-21.726v-15.541c0-1.289 0.756-2.024 2.077-2.024h15.492c1.324 0 2.078 0.735 2.078 2.024v3.953h11.242v-9.932c0-4.414-1.984-6.254-6.424-6.254h-30.416c-4.534 0-6.424 1.84-6.424 6.254z" fill="#006bb6"/>
  </g>
  <g transform="matrix(.59149 0 0 -.59149 257.3 43.653)">
   <path d="m0 0-7.935 11.679c-0.945 1.381-1.7 1.564-3.684 1.564h-3.494v9.932h8.406c3.968 0 5.668-0.827 7.841-4.414l4.723-7.725c0.661-1.196 1.512-3.036 1.512-3.036h0.189s0.849 1.84 1.51 3.036l4.723 7.725c2.173 3.587 3.779 4.414 7.841 4.414h8.312v-9.932h-3.4c-1.983 0-2.74-0.183-3.685-1.564l-8.028-11.679 15.775-23.727h-13.319l-8.407 13.06c-0.661 0.918-1.322 2.483-1.322 2.483h-0.189s-0.757-1.473-1.418-2.483l-8.311-13.06h-13.32z" fill="#006bb6"/>
  </g>
  <g transform="matrix(.59149 0 0 -.59149 297.64 40.226)">
   <path d="m0 0c-0.188 5.61-4.156 9.472-9.068 9.472-6.139 0-10.485-3.587-11.808-9.472zm-9.068 18.484c13.792 0 21.349-9.839 21.349-22.255 0-1.379-0.283-4.322-0.283-4.322h-33.251c0.943-8.277 7.179-12.599 14.452-12.599 7.746 0 13.508 5.241 13.508 5.241l5.008-8.091s-7.369-7.083-19.365-7.083c-15.965 0-25.883 11.221-25.883 24.556 0 14.438 10.012 24.553 24.465 24.553" fill="#006bb6"/>
  </g>
  <g transform="matrix(.59149 0 0 -.59149 87.495 70.282)">
   <path d="m0 0c3.49 0 6.321 2.852 6.321 6.559 0 3.587-2.831 6.344-6.321 6.344-3.491 0-6.298-2.757-6.298-6.344 0-3.707 2.807-6.559 6.298-6.559m0 15.113c4.979 0 8.859-3.73 8.859-8.554 0-4.944-3.88-8.793-8.859-8.793s-8.835 3.849-8.835 8.793c0 4.824 3.856 8.554 8.835 8.554" fill="#006bb6"/>
  </g>
  <g transform="matrix(.59149 0 0 -.59149 97.978 70.437)">
   <path d="m0 0c1.952 0 3.563 1.568 3.563 4.301 0 2.613-1.44 4.302-3.491 4.302-1.83 0-3.562-1.26-3.562-4.326 0-2.138 1.195-4.277 3.49-4.277m-5.785 7.842c0 0.356-0.195 0.522-0.537 0.522h-1v1.973h2.22c1.098 0 1.514-0.452 1.514-1.212 0-0.356-0.024-0.643-0.024-0.643h0.048s1.025 2.14 4.1 2.14c3.319 0 5.443-2.566 5.443-6.298 0-3.825-2.391-6.297-5.614-6.297-2.733 0-3.782 1.925-3.782 1.925h-0.049s0.049-0.427 0.049-1.046v-5.345h-2.368z" fill="#006bb6"/>
  </g>
  <g transform="matrix(.59149 0 0 -.59149 103.33 65.42)">
   <path d="m0 0h-1.611v1.854h1.66v3.304h2.319v-3.304h2.953v-1.854h-2.953v-5.512c0-2.4 1.708-2.709 2.611-2.709 0.342 0 0.562 0.047 0.562 0.047v-2.043s-0.317-0.048-0.83-0.048c-1.563 0-4.711 0.476-4.711 4.492z" fill="#006bb6"/>
  </g>
  <path d="m108.46 61.511h1.2557v1.4196h-1.2557zm-0.029 4.2871c0-0.21056-0.11603-0.30876-0.31763-0.30876h-0.5915v-1.167h1.3711c0.65004 0 0.92391 0.26793 0.92391 0.89965v4.7372c0 0.21057 0.11585 0.30876 0.31762 0.30876h0.59149v1.167h-1.3711c-0.64946 0-0.92391-0.26736-0.92391-0.90025z" fill="#006bb6"/>
  <g transform="matrix(.59149 0 0 -.59149 112.33 65.799)">
   <path d="m0 0c0 0.356-0.195 0.522-0.537 0.522h-1v1.973h2.268c1.075 0 1.563-0.452 1.563-1.331v-0.451c0-0.381-0.024-0.69-0.024-0.69h0.048c0.586 1.403 2.294 2.757 4.223 2.757 2.099 0 3.295-0.926 3.709-2.732h0.05c0.682 1.45 2.39 2.732 4.392 2.732 2.783 0 4.077-1.545 4.077-4.61v-5.204c0-0.357 0.195-0.523 0.537-0.523h1.001v-1.972h-2.344c-1.098 0-1.562 0.452-1.562 1.521v5.679c0 1.687-0.341 3.018-2.172 3.018-1.708 0-3.027-1.449-3.466-3.089-0.121-0.498-0.196-1.022-0.196-1.64v-5.489h-2.367v7.2c0 1.569-0.244 3.018-2.123 3.018-1.806 0-3.075-1.474-3.539-3.185-0.122-0.475-0.171-0.997-0.171-1.544v-5.489h-2.367z" fill="#006bb6"/>
  </g>
  <path d="m125.96 61.511h1.2557v1.4196h-1.2557zm-0.0283 4.2871c0-0.21056-0.11586-0.30876-0.31823-0.30876h-0.59149v-1.167h1.3717c0.64887 0 0.92332 0.26793 0.92332 0.89965v4.7372c0 0.21057 0.11586 0.30876 0.31762 0.30876h0.59208v1.167h-1.3716c-0.64946 0-0.92331-0.26736-0.92331-0.90025z" fill="#006bb6"/>
  <g transform="matrix(.59149 0 0 -.59149 129.08 70.648)">
   <path d="m0 0 6.321 7.604c0.537 0.642 1.026 1.117 1.026 1.117v0.048s-0.391-0.048-1.197-0.048h-3.368c-0.342 0-0.537-0.191-0.537-0.523v-0.808h-2.172v1.783c0 1.068 0.463 1.52 1.562 1.52h8.836v-1.331l-6.347-7.628c-0.512-0.594-1.024-1.092-1.024-1.092v-0.047s0.39 0.047 1.195 0.047h3.954c0.342 0 0.538 0.189 0.538 0.522v0.808h2.148v-1.782c0-1.069-0.464-1.521-1.563-1.521h-9.372z" fill="#006bb6"/>
  </g>
  <path d="m137.22 61.511h1.2557v1.4196h-1.2557zm-0.0283 4.2871c0-0.21056-0.11585-0.30876-0.31822-0.30876h-0.5915v-1.167h1.3717c0.64887 0 0.92333 0.26793 0.92333 0.89965v4.7372c0 0.21057 0.11586 0.30876 0.31822 0.30876h0.59148v1.167h-1.3711c-0.65004 0-0.9239-0.26736-0.9239-0.90025z" fill="#006bb6"/>
  <g transform="matrix(.59149 0 0 -.59149 141.09 65.799)">
   <path d="m0 0c0 0.356-0.195 0.522-0.537 0.522h-1.001v1.973h2.269c1.05 0 1.563-0.452 1.563-1.331v-0.451c0-0.381-0.049-0.69-0.049-0.69h0.049c0.488 1.046 1.953 2.757 4.637 2.757 2.929 0 4.247-1.545 4.247-4.61v-5.204c0-0.357 0.195-0.523 0.537-0.523h1v-1.972h-2.343c-1.099 0-1.562 0.452-1.562 1.521v5.654c0 1.689-0.342 3.019-2.319 3.019-1.903 0-3.416-1.212-3.904-2.946-0.171-0.475-0.22-1.022-0.22-1.616v-5.632h-2.367z" fill="#006bb6"/>
  </g>
  <g transform="matrix(.59149 0 0 -.59149 154.92 67.725)">
   <path d="m0 0c0 3.137-1.586 4.041-3.49 4.041-2.148 0-3.367-1.521-3.367-3.97 0-2.495 1.341-4.206 3.562-4.206 1.709 0 3.295 0.998 3.295 4.135m-3.855 6.036c3.075 0 3.953-1.877 3.953-1.877h0.048v0.38c0 0.713 0.391 1.212 1.368 1.212h2.294v-1.973h-0.976c-0.317 0-0.538-0.166-0.538-0.474v-9.077c0-3.97-3.1-5.491-6.224-5.491-1.488 0-3.002 0.405-4.221 0.998l0.805 1.854s1.513-0.809 3.367-0.809c2.149 0 3.906 0.928 3.906 3.352v0.808c0 0.379 0.049 0.76 0.049 0.76h-0.049c-0.733-1.164-1.879-1.83-3.685-1.83-3.417 0-5.516 2.686-5.516 6.154 0 3.447 1.977 6.013 5.419 6.013" fill="#006bb6"/>
  </g>
  <g transform="matrix(.59149 0 0 -.59149 166.98 61.343)">
   <path d="m0 0c2.32 0 6.468-0.951 6.468-3.636v-1.639h-2.245v0.951c0 1.401-2.441 2.114-4.174 2.114-3.466 0-6.15-2.543-6.15-6.321 0-3.66 2.709-6.582 6.225-6.582 3.416 0 5.442 2.281 5.442 2.281l1.317-1.712s-2.441-2.804-6.784-2.804c-5.151 0-8.739 3.873-8.739 8.817 0 4.847 3.71 8.531 8.64 8.531" fill="#006bb6"/>
  </g>
  <g transform="matrix(.59149 0 0 -.59149 175.95 70.423)">
   <path d="m0 0c2.343 0 4.246 1.807 4.246 4.325 0 2.495-1.903 4.279-4.246 4.279-2.318 0-4.222-1.784-4.222-4.279 0-2.518 1.904-4.325 4.222-4.325m0 10.599c3.685 0 6.663-2.638 6.663-6.274 0-3.659-2.978-6.321-6.663-6.321-3.686 0-6.639 2.662-6.639 6.321 0 3.636 2.953 6.274 6.639 6.274" fill="#006bb6"/>
  </g>
  <g transform="matrix(.59149 0 0 -.59149 181.64 65.799)">
   <path d="m0 0c0 0.356-0.196 0.522-0.538 0.522h-1v1.973h2.269c1.049 0 1.562-0.452 1.562-1.331v-0.451c0-0.381-0.049-0.69-0.049-0.69h0.049c0.489 1.046 1.953 2.757 4.638 2.757 2.928 0 4.247-1.545 4.247-4.61v-5.204c0-0.357 0.195-0.523 0.537-0.523h1v-1.972h-2.343c-1.098 0-1.561 0.452-1.561 1.521v5.654c0 1.689-0.342 3.019-2.319 3.019-1.904 0-3.417-1.212-3.906-2.946-0.171-0.475-0.218-1.022-0.218-1.616v-5.632h-2.368z" fill="#006bb6"/>
  </g>
  <g transform="matrix(.59149 0 0 -.59149 190.56 69.44)">
   <path d="m0 0s1.465-1.782 3.733-1.782c1.148 0 2.148 0.5 2.148 1.545 0 2.162-6.735 1.925-6.735 5.799 0 2.304 2.075 3.374 4.587 3.374 1.49 0 4.052-0.499 4.052-2.33v-1.14h-2.122v0.594c0 0.712-1.099 1.022-1.854 1.022-1.394 0-2.295-0.476-2.295-1.426 0-2.281 6.735-1.782 6.735-5.798 0-2.139-1.951-3.517-4.539-3.517-3.295 0-4.93 2.115-4.93 2.115z" fill="#006bb6"/>
  </g>
  <g transform="matrix(.59149 0 0 -.59149 197.29 65.42)">
   <path d="m0 0h-1.611v1.854h1.66v3.304h2.319v-3.304h2.953v-1.854h-2.953v-5.512c0-2.4 1.707-2.709 2.611-2.709 0.342 0 0.562 0.047 0.562 0.047v-2.043s-0.318-0.048-0.831-0.048c-1.563 0-4.71 0.476-4.71 4.492z" fill="#006bb6"/>
  </g>
  <g transform="matrix(.59149 0 0 -.59149 202.31 65.799)">
   <path d="m0 0c0 0.356-0.196 0.522-0.538 0.522h-1v1.973h2.246c1.073 0 1.586-0.428 1.586-1.401v-0.762c0-0.475-0.05-0.831-0.05-0.831h0.05c0.585 1.759 2.002 3.137 3.905 3.137 0.317 0 0.635-0.048 0.635-0.048v-2.281s-0.318 0.072-0.709 0.072c-1.513 0-2.904-1.046-3.464-2.828-0.221-0.69-0.293-1.427-0.293-2.163v-4.919h-2.368z" fill="#006bb6"/>
  </g>
  <g transform="matrix(.59149 0 0 -.59149 207.97 65.799)">
   <path d="m0 0c0 0.356-0.196 0.522-0.538 0.522h-1v1.973h2.318c1.124 0 1.588-0.452 1.588-1.474v-5.703c0-1.664 0.342-2.994 2.293-2.994 2.538 0 4.027 2.162 4.027 4.539v5.632h2.369v-9.529c0-0.357 0.194-0.523 0.536-0.523h1v-1.972h-2.27c-1.049 0-1.561 0.475-1.561 1.331v0.451c0 0.38 0.025 0.688 0.025 0.688h-0.049c-0.513-1.187-2.098-2.755-4.541-2.755-2.782 0-4.197 1.425-4.197 4.61z" fill="#006bb6"/>
  </g>
  <g transform="matrix(.59149 0 0 -.59149 220.19 64.154)">
   <path d="m0 0c1.488 0 4.441-0.595 4.441-2.638v-1.236h-2.147v0.666c0 0.855-1.392 1.236-2.294 1.236-2.416 0-4.222-1.759-4.222-4.301 0-2.734 2.049-4.279 4.344-4.279 2.318 0 3.831 1.664 3.831 1.664l1.026-1.639s-1.758-2.068-5.028-2.068c-3.881 0-6.59 2.686-6.59 6.297 0 3.541 2.66 6.298 6.639 6.298" fill="#006bb6"/>
  </g>
  <g transform="matrix(.59149 0 0 -.59149 224.72 65.42)">
   <path d="m0 0h-1.611v1.854h1.66v3.304h2.318v-3.304h2.953v-1.854h-2.953v-5.512c0-2.4 1.709-2.709 2.612-2.709 0.341 0 0.561 0.047 0.561 0.047v-2.043s-0.316-0.048-0.829-0.048c-1.562 0-4.711 0.476-4.711 4.492z" fill="#006bb6"/>
  </g>
  <path d="m229.85 61.511h1.2563v1.4196h-1.2563zm-0.029 4.2871c0-0.21056-0.11536-0.30876-0.31762-0.30876h-0.59148v-1.167h1.3717c0.64945 0 0.92391 0.26793 0.92391 0.89965v4.7372c0 0.21057 0.11468 0.30876 0.31702 0.30876h0.5915v1.167h-1.3711c-0.64945 0-0.92391-0.26736-0.92391-0.90025z" fill="#006bb6"/>
  <g transform="matrix(.59149 0 0 -.59149 236.94 70.423)">
   <path d="m0 0c2.344 0 4.247 1.807 4.247 4.325 0 2.495-1.903 4.279-4.247 4.279-2.319 0-4.223-1.784-4.223-4.279 0-2.518 1.904-4.325 4.223-4.325m0 10.599c3.686 0 6.662-2.638 6.662-6.274 0-3.659-2.976-6.321-6.662-6.321-3.687 0-6.64 2.662-6.64 6.321 0 3.636 2.953 6.274 6.64 6.274" fill="#006bb6"/>
  </g>
  <g transform="matrix(.59149 0 0 -.59149 242.63 65.799)">
   <path d="m0 0c0 0.356-0.194 0.522-0.536 0.522h-1v1.973h2.269c1.049 0 1.562-0.452 1.562-1.331v-0.451c0-0.381-0.049-0.69-0.049-0.69h0.049c0.487 1.046 1.953 2.757 4.638 2.757 2.928 0 4.246-1.545 4.246-4.61v-5.204c0-0.357 0.196-0.523 0.538-0.523h1v-1.972h-2.344c-1.099 0-1.562 0.452-1.562 1.521v5.654c0 1.689-0.342 3.019-2.319 3.019-1.904 0-3.417-1.212-3.904-2.946-0.171-0.475-0.22-1.022-0.22-1.616v-5.632h-2.368z" fill="#006bb6"/>
  </g>
  <g transform="matrix(.59149 0 0 -.59149 259.13 66.558)">
   <path d="m0 0c2.026 0 3.27 1.26 3.27 3.279 0 2.02-1.244 3.208-3.246 3.208h-3.197v-6.487zm-5.613 6.487h-1.587v2.044h7.59c3.149 0 5.394-2.068 5.394-5.252 0-3.183-2.245-5.323-5.394-5.323h-3.563v-6.202h-2.44z" fill="#006bb6"/>
  </g>
  <g transform="matrix(.59149 0 0 -.59149 264.1 65.799)">
   <path d="m0 0c0 0.356-0.196 0.522-0.538 0.522h-1.001v1.973h2.246c1.073 0 1.586-0.428 1.586-1.401v-0.762c0-0.475-0.049-0.831-0.049-0.831h0.049c0.585 1.759 2.002 3.137 3.905 3.137 0.318 0 0.635-0.048 0.635-0.048v-2.281s-0.317 0.072-0.709 0.072c-1.513 0-2.904-1.046-3.464-2.828-0.221-0.69-0.293-1.427-0.293-2.163v-4.919h-2.367z" fill="#006bb6"/>
  </g>
  <g transform="matrix(.59149 0 0 -.59149 272.62 70.423)">
   <path d="m0 0c2.342 0 4.246 1.807 4.246 4.325 0 2.495-1.904 4.279-4.246 4.279-2.318 0-4.223-1.784-4.223-4.279 0-2.518 1.905-4.325 4.223-4.325m0 10.599c3.685 0 6.662-2.638 6.662-6.274 0-3.659-2.977-6.321-6.662-6.321-3.687 0-6.64 2.662-6.64 6.321 0 3.636 2.953 6.274 6.64 6.274" fill="#006bb6"/>
  </g>
  <g transform="matrix(.59149 0 0 -.59149 281.52 64.154)">
   <path d="m0 0c1.487 0 4.44-0.595 4.44-2.638v-1.236h-2.147v0.666c0 0.855-1.391 1.236-2.293 1.236-2.417 0-4.223-1.759-4.223-4.301 0-2.734 2.05-4.279 4.345-4.279 2.318 0 3.831 1.664 3.831 1.664l1.026-1.639s-1.758-2.068-5.028-2.068c-3.881 0-6.59 2.686-6.59 6.297 0 3.541 2.66 6.298 6.639 6.298" fill="#006bb6"/>
  </g>
  <g transform="matrix(.59149 0 0 -.59149 290.66 67.05)">
   <path d="m0 0c-0.073 1.996-1.366 3.066-2.904 3.066-1.806 0-3.27-1.07-3.637-3.066zm-2.879 4.896c3.464 0 5.32-2.519 5.32-5.632 0-0.309-0.074-0.951-0.074-0.951h-9.005c0.146-2.567 2.049-4.016 4.246-4.016 2.124 0 3.612 1.402 3.612 1.402l1.025-1.639s-1.829-1.759-4.759-1.759c-3.906 0-6.566 2.732-6.566 6.297 0 3.826 2.685 6.298 6.201 6.298" fill="#006bb6"/>
  </g>
  <g transform="matrix(.59149 0 0 -.59149 293.86 69.44)">
   <path d="m0 0s1.464-1.782 3.733-1.782c1.148 0 2.148 0.5 2.148 1.545 0 2.162-6.735 1.925-6.735 5.799 0 2.304 2.074 3.374 4.587 3.374 1.49 0 4.051-0.499 4.051-2.33v-1.14h-2.122v0.594c0 0.712-1.099 1.022-1.854 1.022-1.393 0-2.295-0.476-2.295-1.426 0-2.281 6.735-1.782 6.735-5.798 0-2.139-1.951-3.517-4.539-3.517-3.295 0-4.93 2.115-4.93 2.115z" fill="#006bb6"/>
  </g>
  <g transform="matrix(.59149 0 0 -.59149 300.41 69.44)">
   <path d="m0 0s1.464-1.782 3.733-1.782c1.147 0 2.148 0.5 2.148 1.545 0 2.162-6.736 1.925-6.736 5.799 0 2.304 2.075 3.374 4.588 3.374 1.489 0 4.051-0.499 4.051-2.33v-1.14h-2.122v0.594c0 0.712-1.099 1.022-1.854 1.022-1.393 0-2.295-0.476-2.295-1.426 0-2.281 6.735-1.782 6.735-5.798 0-2.139-1.951-3.517-4.539-3.517-3.295 0-4.93 2.115-4.93 2.115z" fill="#006bb6"/>
  </g>
 </g>
</svg>
